<?xml version="1.0" standalone="no"?><!DOCTYPE svg PUBLIC "-//W3C//DTD SVG 1.1//EN" "http://www.w3.org/Graphics/SVG/1.1/DTD/svg11.dtd"><svg t="1667419078596" class="icon" viewBox="0 0 1024 1024" version="1.1" xmlns="http://www.w3.org/2000/svg" p-id="1906" xmlns:xlink="http://www.w3.org/1999/xlink" width="200" height="200"><path d="M0 0h1024v1024H0V0z" fill="#FFFFFF" p-id="1907"></path><path d="M227.057959 379.715537c-52.491979 61.645272-102.821806 138.090934-103.326485 195.231277-0.196559 21.499346 6.667082 40.268111 23.130258 54.484135 23.693374 20.47405 49.798585 27.693623 75.776297 27.736122 37.962523 0.053124 75.659424-15.26257 105.175206-27.07207 49.708274-19.87906 599.187366-258.496835 599.187367-258.496835 5.301791-2.656208 4.308369-5.965843-2.326838-4.313682-2.677458 0.669364-598.193945 162.055241-598.193945 162.055241a131.593849 131.593849 0 0 1-34.6582 4.961796c-45.766461 0.270933-86.49144-25.133039-86.16207-78.666252 0.127498-20.946855 6.539584-46.207392 21.39841-75.919732z" fill="" p-id="1908"></path></svg>