<?xml version="1.0" standalone="no"?><!DOCTYPE svg PUBLIC "-//W3C//DTD SVG 1.1//EN" "http://www.w3.org/Graphics/SVG/1.1/DTD/svg11.dtd"><svg t="1667498185015" fill="#ffffff" class="icon" viewBox="0 0 1024 1024" version="1.1" xmlns="http://www.w3.org/2000/svg" p-id="7295" xmlns:xlink="http://www.w3.org/1999/xlink" width="64" height="64"><path d="M851.538113 216.943984 172.460864 216.943984c-25.529443 0-46.300512 22.687722-46.300512 50.581002l0 488.949005c0 27.903513 20.772093 50.581002 46.300512 50.581002L851.538113 807.054993c25.533536 0 46.300512-22.678512 46.300512-50.581002L897.838625 267.524986C897.839649 239.631706 877.071649 216.943984 851.538113 216.943984zM866.971617 756.473991c0 9.296737-6.91755 16.868179-15.433504 16.868179L172.460864 773.34217c-8.515954 0-15.433504-7.571443-15.433504-16.868179L157.027359 503.573073l709.944258 0L866.971617 756.473991zM866.971617 368.688014 157.027359 368.688014l0-101.163027c0-9.30083 6.91755-16.85897 15.433504-16.85897L851.538113 250.666016c8.515954 0 15.433504 7.55814 15.433504 16.85897L866.971617 368.688014zM758.937089 621.599164 542.867008 621.599164l0 33.712823 216.07008 0L758.937089 621.599164z" p-id="7296" ></path></svg>