<?xml version="1.0" standalone="no"?><!DOCTYPE svg PUBLIC "-//W3C//DTD SVG 1.1//EN" "http://www.w3.org/Graphics/SVG/1.1/DTD/svg11.dtd"><svg t="1667497477971" class="icon" viewBox="0 0 1024 1024" version="1.1" xmlns="http://www.w3.org/2000/svg" p-id="7877" xmlns:xlink="http://www.w3.org/1999/xlink" width="64" height="64"><path d="M744.32 367.914667a212.949333 212.949333 0 0 0-74.24-12.842667c-81.92 0-139.733333 41.301333-140.16 100.48-0.512 43.52 41.130667 68.010667 72.576 82.602667 32.298667 14.933333 43.093333 24.32 43.008 37.76-0.213333 20.352-25.813333 29.568-49.578667 29.568-32.682667 0-50.602667-4.565333-78.122666-16l-10.197334-4.736-11.562666 68.181333c19.882667 8.32 55.722667 15.445333 92.8 16 87.082667 0 144-41.002667 144.682666-104.064 0.682667-34.688-21.76-61.013333-69.162666-82.688-28.757333-14.08-46.677333-23.509333-46.677334-37.802667 0-12.629333 15.317333-26.112 47.317334-26.112a151.893333 151.893333 0 0 1 62.08 11.648l7.68 3.456 11.562666-65.877333-2.005333 0.426667z m212.608-7.253334h-64c-19.925333 0-34.816 5.418667-43.562667 25.216l-123.093333 278.784h87.082667l17.408-45.653333 106.24 0.085333c2.602667 10.666667 10.24 45.568 10.24 45.568H1024l-67.072-304zM412.16 358.101333h82.901333l-51.84 304.170667H360.277333L412.16 358.016v0.085333z m-210.730667 167.637334l8.618667 42.24 81.109333-207.317334h87.850667l-130.602667 303.573334H160.768l-71.68-257.109334a16.981333 16.981333 0 0 0-7.68-10.112A350.336 350.336 0 0 0 0 366.848l1.066667-6.4h133.589333c18.090667 0.682667 32.682667 6.4 37.674667 25.770667l29.098666 139.648v-0.128z m653.141334 31.018666l33.066666-85.077333c-0.426667 0.853333 6.826667-17.578667 11.008-29.013333l5.674667 26.24 19.157333 87.765333h-68.906666v0.085333z" fill="#ffffff" p-id="7878"></path></svg>