<?xml version="1.0" standalone="no"?><!DOCTYPE svg PUBLIC "-//W3C//DTD SVG 1.1//EN" "http://www.w3.org/Graphics/SVG/1.1/DTD/svg11.dtd"><svg t="1667497403848" class="icon" viewBox="0 0 1024 1024" version="1.1" xmlns="http://www.w3.org/2000/svg" p-id="5594" width="64" height="64" xmlns:xlink="http://www.w3.org/1999/xlink"><path d="M699.733333 187.733333c-71.68 0-133.12 23.893333-187.733333 61.44-54.613333-37.546667-116.053333-61.44-187.733333-61.44-177.493333 0-324.266667 146.773333-324.266667 324.266667 0 64.853333 20.48 126.293333 51.2 177.493333 0 3.413333 3.413333 6.826667 3.413333 6.826667 58.026667 85.333333 157.013333 139.946667 266.24 139.946667 71.68 0 133.12-23.893333 187.733334-61.44 54.613333 37.546667 116.053333 61.44 187.733333 61.44 177.493333 0 324.266667-146.773333 324.266667-324.266667 3.413333-177.493333-143.36-324.266667-320.853334-324.266667z m-187.733333 102.4c10.24 10.24 23.893333 20.48 34.133333 34.133334h-64.853333c6.826667-13.653333 20.48-23.893333 30.72-34.133334z m-88.746667 307.2c-3.413333-10.24-6.826667-23.893333-6.826666-34.133333h194.56c-3.413333 10.24-3.413333 23.893333-6.826667 34.133333h-180.906667z m163.84 34.133334c-6.826667 13.653333-13.653333 23.893333-20.48 34.133333H450.56c-6.826667-10.24-13.653333-23.893333-17.066667-34.133333h153.6z m-177.493333-102.4v-17.066667-17.066667h201.386667v34.133334h-201.386667z m3.413333-68.266667c3.413333-10.24 3.413333-23.893333 6.826667-34.133333H597.333333c3.413333 10.24 6.826667 23.893333 6.826667 34.133333h-191.146667z m23.893334-68.266667c6.826667-10.24 10.24-23.893333 17.066666-34.133333H570.026667c6.826667 10.24 13.653333 23.893333 20.48 34.133333h-153.6z m-112.64-170.666666c47.786667 0 95.573333 13.653333 136.533333 34.133333h-273.066667c40.96-20.48 88.746667-34.133333 136.533334-34.133333z m-180.906667 64.853333c3.413333 3.413333 6.826667 3.413333 10.24 3.413333h310.613333c-10.24 10.24-20.48 20.48-27.306666 34.133334h-331.093334c10.24-13.653333 23.893333-27.306667 37.546667-37.546667z m-64.853333 71.68H413.013333c-6.826667 10.24-10.24 23.893333-17.066666 34.133333h-337.92c6.826667-13.653333 13.653333-23.893333 20.48-34.133333z m-30.72 68.266667h337.92c-3.413333 10.24-6.826667 23.893333-6.826667 34.133333h-341.333333c3.413333-13.653333 6.826667-23.893333 10.24-34.133333z m-13.653334 85.333333v-17.066667h341.333334v34.133334h-341.333334v-17.066667z m17.066667 85.333333h-3.413333c-3.413333-10.24-6.826667-23.893333-6.826667-34.133333h341.333333c3.413333 10.24 3.413333 23.893333 6.826667 34.133333h-337.92z m10.24 34.133334h337.92c3.413333 10.24 10.24 23.893333 17.066667 34.133333h-334.506667c-10.24-10.24-17.066667-23.893333-20.48-34.133333z m262.826667 170.666666c-47.786667 0-95.573333-13.653333-136.533334-34.133333h273.066667c-40.96 20.48-88.746667 34.133333-136.533333 34.133333z m-187.733334-68.266666c-13.653333-10.24-23.893333-20.48-34.133333-34.133334h331.093333c10.24 13.653333 17.066667 23.893333 27.306667 34.133334h-324.266667z m341.333334-34.133334h64.853333c-10.24 10.24-20.48 23.893333-34.133333 34.133334-6.826667-10.24-20.48-23.893333-30.72-34.133334z m221.866666 102.4c-58.026667 0-112.64-17.066667-160.426666-47.786666 40.96-34.133333 71.68-78.506667 88.746666-129.706667 0-3.413333 3.413333-3.413333 3.413334-6.826667 10.24-34.133333 17.066667-68.266667 17.066666-102.4 0-95.573333-40.96-180.906667-109.226666-242.346666 44.373333-30.72 102.4-47.786667 160.426666-47.786667 160.426667 0 290.133333 129.706667 290.133334 290.133333s-129.706667 286.72-290.133334 286.72z" fill="#ffffff" p-id="5595"></path></svg>